<svg xmlns="http://www.w3.org/2000/svg" width="319" height="132" viewBox="0 0 319 132"><path d="M61.01 25.55L63.26 31.69L62.96 31.82Q60.38 29.43 56.74 28.01Q53.10 26.58 48.75 26.58L48.75 26.58Q44.57 26.58 41.08 27.89Q37.60 29.20 35.09 31.69Q32.58 34.18 31.19 37.80Q29.79 41.42 29.79 46.04L29.79 46.04Q29.79 51.12 31.12 55.51Q32.45 59.91 35.07 63.13Q37.70 66.36 41.63 68.20Q45.57 70.04 50.81 70.04L50.81 70.04Q52.71 70.04 54.60 69.64Q56.49 69.24 58.23 68.46Q59.98 67.68 61.52 66.57Q63.06 65.46 64.33 64.03L64.33 64.03L64.69 64.26L62.04 71.04Q59.54 72 56.54 72.51Q53.54 73.03 50.48 73.03L50.48 73.03Q44.34 73.03 39.24 71.25Q34.14 69.48 30.48 66.22Q26.81 62.97 24.76 58.40Q22.72 53.84 22.72 48.26L22.72 48.26Q22.72 45.11 23.54 42.05Q24.35 39.00 25.91 36.24Q27.47 33.48 29.76 31.18Q32.05 28.87 34.99 27.18Q37.93 25.48 41.47 24.54Q45.00 23.59 49.12 23.59L49.12 23.59Q55.53 23.59 61.01 25.55L61.01 25.55Z" fill="#0a1a48"></path><path d="M108.23 56.03L108.23 37.40Q108.23 34.58 108.17 32.47Q108.10 30.36 107.97 28.82Q107.84 27.28 107.67 26.25Q107.50 25.22 107.30 24.52L107.30 24.52L107.30 24.39L113.21 24.39L113.21 24.52Q113.02 25.22 112.83 26.25Q112.65 27.28 112.53 28.82Q112.42 30.36 112.33 32.47Q112.25 34.58 112.25 37.40L112.25 37.40L112.25 55.33Q112.25 60.08 110.89 63.43Q109.53 66.79 107.11 68.93Q104.68 71.07 101.29 72.05Q97.91 73.03 93.89 73.03L93.89 73.03Q89.87 73.03 86.40 72.10Q82.93 71.17 80.36 69.09Q77.79 67.02 76.33 63.72Q74.86 60.41 74.86 55.66L74.86 55.66L74.86 37.40Q74.86 34.58 74.80 32.47Q74.73 30.36 74.60 28.82Q74.47 27.28 74.28 26.25Q74.10 25.22 73.90 24.52L73.90 24.52L73.90 24.39L81.87 24.39L81.87 24.52Q81.67 25.22 81.49 26.25Q81.31 27.28 81.17 28.82Q81.04 30.36 80.97 32.47Q80.91 34.58 80.91 37.40L80.91 37.40L80.91 56.03Q80.91 59.98 82.09 62.55Q83.27 65.13 85.19 66.64Q87.12 68.15 89.57 68.75Q92.03 69.34 94.59 69.34L94.59 69.34Q97.14 69.34 99.60 68.75Q102.06 68.15 103.97 66.64Q105.88 65.13 107.06 62.55Q108.23 59.98 108.23 56.03L108.23 56.03Z" fill="#0a1a48"></path><path d="M132.85 51.55L132.85 59.02Q132.85 61.84 132.93 63.95Q133.02 66.06 133.13 67.58Q133.25 69.11 133.43 70.14Q133.61 71.17 133.81 71.87L133.81 71.87L133.81 72L125.84 72L125.84 71.87Q126.04 71.17 126.23 70.14Q126.41 69.11 126.53 67.58Q126.64 66.06 126.72 63.96Q126.81 61.87 126.81 59.02L126.81 59.02L126.81 37.40Q126.81 34.58 126.72 32.47Q126.64 30.36 126.53 28.84Q126.41 27.31 126.23 26.26Q126.04 25.22 125.84 24.52L125.84 24.52L125.84 24.39L127.24 24.52Q127.87 24.59 128.65 24.60Q129.43 24.62 130.26 24.62L130.26 24.62Q131.56 24.62 133.76 24.30Q135.97 23.99 139.39 23.99L139.39 23.99Q142.58 23.99 145.29 24.85Q147.99 25.71 149.98 27.38Q151.98 29.04 153.09 31.44Q154.20 33.85 154.20 36.90L154.20 36.90Q154.20 39.29 153.59 41.34Q152.97 43.38 151.86 45.04Q150.75 46.70 149.19 47.98Q147.63 49.26 145.70 50.12L145.70 50.12L157.35 66.49Q158.22 67.72 158.97 68.61Q159.71 69.51 160.39 70.16Q161.07 70.80 161.70 71.22Q162.34 71.63 163.00 71.87L163.00 71.87L163.00 72L153.40 72Q153.30 71.37 152.76 70.32Q152.21 69.28 151.48 68.25L151.48 68.25L139.72 51.68Q138.96 51.75 138.20 51.80Q137.43 51.85 136.64 51.85L136.64 51.85Q135.71 51.85 134.76 51.78Q133.81 51.71 132.85 51.55L132.85 51.55ZM132.85 26.98L132.85 48.96Q133.75 49.16 134.68 49.24Q135.61 49.32 136.47 49.32L136.47 49.32Q138.96 49.32 141.02 48.58Q143.08 47.83 144.52 46.30Q145.97 44.77 146.76 42.50Q147.56 40.22 147.56 37.17L147.56 37.17Q147.56 34.68 147.00 32.65Q146.43 30.63 145.32 29.22Q144.21 27.81 142.51 27.03Q140.82 26.25 138.56 26.25L138.56 26.25Q136.27 26.25 134.91 26.48Q133.55 26.71 132.85 26.98L132.85 26.98Z" fill="#0a1a48"></path><path d="M169.72 72L169.72 71.87Q169.92 71.17 170.08 70.14Q170.25 69.11 170.38 67.58Q170.52 66.06 170.58 63.95Q170.65 61.84 170.65 59.02L170.65 59.02L170.65 37.40Q170.65 34.58 170.58 32.47Q170.52 30.36 170.38 28.82Q170.25 27.28 170.08 26.25Q169.92 25.22 169.72 24.52L169.72 24.52L169.72 24.39L177.66 24.39L177.66 24.52Q177.46 25.22 177.27 26.25Q177.09 27.28 176.97 28.82Q176.86 30.36 176.78 32.47Q176.69 34.58 176.69 37.40L176.69 37.40L176.69 59.02Q176.69 61.84 176.78 63.95Q176.86 66.06 176.97 67.58Q177.09 69.11 177.27 70.14Q177.46 71.17 177.66 71.87L177.66 71.87L177.66 72L169.72 72Z" fill="#0a1a48"></path><path d="M224.92 56.03L224.92 37.40Q224.92 34.58 224.85 32.47Q224.78 30.36 224.65 28.82Q224.52 27.28 224.35 26.25Q224.19 25.22 223.99 24.52L223.99 24.52L223.99 24.39L229.90 24.39L229.90 24.52Q229.70 25.22 229.52 26.25Q229.33 27.28 229.22 28.82Q229.10 30.36 229.02 32.47Q228.93 34.58 228.93 37.40L228.93 37.40L228.93 55.33Q228.93 60.08 227.57 63.43Q226.21 66.79 223.79 68.93Q221.36 71.07 217.98 72.05Q214.59 73.03 210.57 73.03L210.57 73.03Q206.56 73.03 203.09 72.10Q199.62 71.17 197.04 69.09Q194.47 67.02 193.01 63.72Q191.55 60.41 191.55 55.66L191.55 55.66L191.55 37.40Q191.55 34.58 191.48 32.47Q191.41 30.36 191.28 28.82Q191.15 27.28 190.97 26.25Q190.78 25.22 190.58 24.52L190.58 24.52L190.58 24.39L198.55 24.39L198.55 24.52Q198.35 25.22 198.17 26.25Q197.99 27.28 197.86 28.82Q197.72 30.36 197.66 32.47Q197.59 34.58 197.59 37.40L197.59 37.40L197.59 56.03Q197.59 59.98 198.77 62.55Q199.95 65.13 201.87 66.64Q203.80 68.15 206.26 68.75Q208.71 69.34 211.27 69.34L211.27 69.34Q213.83 69.34 216.28 68.75Q218.74 68.15 220.65 66.64Q222.56 65.13 223.74 62.55Q224.92 59.98 224.92 56.03L224.92 56.03Z" fill="#0a1a48"></path><path d="M280.01 25.28L247.64 69.08L261.85 69.08Q265.74 69.08 269.04 68.75Q272.34 68.41 274.80 67.98L274.80 67.98Q277.66 67.52 280.01 66.89L280.01 66.89L278.39 72.27Q277.99 72.23 277.19 72.20Q276.39 72.17 275.42 72.13Q274.44 72.10 273.36 72.08Q272.28 72.07 271.31 72.05Q270.35 72.03 269.60 72.02Q268.86 72 268.53 72L268.53 72L238.54 72L238.54 71.17L270.88 27.31L258.40 27.31Q254.48 27.31 251.18 27.66Q247.87 28.01 245.42 28.40L245.42 28.40Q242.56 28.90 240.24 29.50L240.24 29.50L242.53 24.12Q242.93 24.15 243.74 24.19Q244.55 24.22 245.53 24.25Q246.51 24.29 247.57 24.30Q248.64 24.32 249.60 24.34Q250.56 24.35 251.31 24.37Q252.06 24.39 252.39 24.39L252.39 24.39L280.01 24.39L280.01 25.28Z" fill="#3d5aa9"></path><path d="M288.23 69.08L288.23 69.08Q288.23 68.35 288.51 67.70Q288.79 67.05 289.27 66.57Q289.76 66.09 290.40 65.81Q291.05 65.53 291.78 65.53L291.78 65.53Q292.54 65.53 293.19 65.81Q293.84 66.09 294.32 66.57Q294.80 67.05 295.08 67.70Q295.37 68.35 295.37 69.08L295.37 69.08Q295.37 70.61 294.34 71.63Q293.31 72.66 291.78 72.66L291.78 72.66Q291.05 72.66 290.40 72.38Q289.76 72.10 289.27 71.62Q288.79 71.14 288.51 70.49Q288.23 69.84 288.23 69.08Z" fill="#f2b01e"></path><path d="M25.54 112L24.45 112L24.45 101.09L20.48 101.09L20.48 100.10L29.52 100.10L29.52 101.09L25.54 101.09L25.54 112Z" fill="#182858"></path><path d="M53.13 112L45.88 112L45.88 100.10L53.07 100.10L53.07 101.09L46.96 101.09L46.96 105.54L52.59 105.54L52.59 106.53L46.96 106.53L46.96 111.01L53.13 111.01L53.13 112Z" fill="#182858"></path><path d="M74.15 112.24L74.15 112.24Q72.06 112.24 70.81 111.01Q69.56 109.77 69.56 107.39L69.56 107.39L69.56 104.71Q69.56 102.33 70.81 101.09Q72.06 99.86 74.15 99.86L74.15 99.86Q76.22 99.86 77.32 101.03Q78.42 102.19 78.42 104.20L78.42 104.20L78.42 104.28L77.33 104.28L77.33 104.16Q77.33 102.70 76.55 101.77Q75.78 100.85 74.15 100.85L74.15 100.85Q72.50 100.85 71.57 101.85Q70.65 102.85 70.65 104.67L70.65 104.67L70.65 107.43Q70.65 109.25 71.57 110.25Q72.50 111.25 74.15 111.25L74.15 111.25Q75.78 111.25 76.55 110.33Q77.33 109.40 77.33 107.94L77.33 107.94L77.33 107.68L78.42 107.68L78.42 107.90Q78.42 109.91 77.32 111.07Q76.22 112.24 74.15 112.24Z" fill="#182858"></path><path d="M96.34 112L95.25 112L95.25 100.10L96.34 100.10L96.34 105.54L102.39 105.54L102.39 100.10L103.48 100.10L103.48 112L102.39 112L102.39 106.53L96.34 106.53L96.34 112Z" fill="#182858"></path><path d="M121.91 112L120.82 112L120.82 100.10L122.98 100.10L127.84 111.35L128.04 111.35L128.04 100.10L129.13 100.10L129.13 112L126.97 112L122.11 100.73L121.91 100.73L121.91 112Z" fill="#182858"></path><path d="M150.67 112.24L150.67 112.24Q148.58 112.24 147.34 111.01Q146.10 109.77 146.10 107.39L146.10 107.39L146.10 104.71Q146.10 102.33 147.34 101.09Q148.58 99.86 150.67 99.86L150.67 99.86Q152.76 99.86 154.00 101.09Q155.24 102.33 155.24 104.71L155.24 104.71L155.24 107.39Q155.24 109.77 154.00 111.01Q152.76 112.24 150.67 112.24ZM150.67 111.25L150.67 111.25Q152.34 111.25 153.25 110.25Q154.16 109.25 154.16 107.43L154.16 107.43L154.16 104.67Q154.16 102.85 153.25 101.85Q152.34 100.85 150.67 100.85L150.67 100.85Q149.02 100.85 148.10 101.85Q147.19 102.85 147.19 104.67L147.19 104.67L147.19 107.43Q147.19 109.25 148.10 110.25Q149.02 111.25 150.67 111.25Z" fill="#182858"></path><path d="M179.56 112L172.21 112L172.21 100.10L173.30 100.10L173.30 111.01L179.56 111.01L179.56 112Z" fill="#182858"></path><path d="M200.13 112.24L200.13 112.24Q198.04 112.24 196.80 111.01Q195.56 109.77 195.56 107.39L195.56 107.39L195.56 104.71Q195.56 102.33 196.80 101.09Q198.04 99.86 200.13 99.86L200.13 99.86Q202.22 99.86 203.46 101.09Q204.70 102.33 204.70 104.71L204.70 104.71L204.70 107.39Q204.70 109.77 203.46 111.01Q202.22 112.24 200.13 112.24ZM200.13 111.25L200.13 111.25Q201.79 111.25 202.70 110.25Q203.61 109.25 203.61 107.43L203.61 107.43L203.61 104.67Q203.61 102.85 202.70 101.85Q201.79 100.85 200.13 100.85L200.13 100.85Q198.48 100.85 197.56 101.85Q196.64 102.85 196.64 104.67L196.64 104.67L196.64 107.43Q196.64 109.25 197.56 110.25Q198.48 111.25 200.13 111.25Z" fill="#182858"></path><path d="M225.82 112.24L225.82 112.24Q224.46 112.24 223.44 111.69Q222.42 111.13 221.86 110.05Q221.30 108.97 221.30 107.39L221.30 107.39L221.30 104.71Q221.30 102.33 222.54 101.09Q223.79 99.86 225.89 99.86L225.89 99.86Q227.96 99.86 229.02 101.02Q230.08 102.17 230.08 104.09L230.08 104.09L230.08 104.18L229.00 104.18L229.00 104.06Q229.00 103.13 228.67 102.40Q228.35 101.68 227.66 101.26Q226.97 100.85 225.89 100.85L225.89 100.85Q224.24 100.85 223.31 101.85Q222.38 102.85 222.38 104.67L222.38 104.67L222.38 107.43Q222.38 109.25 223.31 110.25Q224.24 111.25 225.89 111.25L225.89 111.25Q227.50 111.25 228.27 110.32Q229.03 109.38 229.03 107.80L229.03 107.80L229.03 107.46L225.10 107.46L225.10 106.51L230.08 106.51L230.08 112L229.10 112L229.10 110.66L228.89 110.66Q228.69 111.06 228.32 111.43Q227.94 111.80 227.34 112.02Q226.74 112.24 225.82 112.24Z" fill="#182858"></path><path d="M248.38 112L247.29 112L247.29 100.10L248.38 100.10L248.38 112Z" fill="#182858"></path><path d="M272.98 112L265.72 112L265.72 100.10L272.91 100.10L272.91 101.09L266.81 101.09L266.81 105.54L272.43 105.54L272.43 106.53L266.81 106.53L266.81 111.01L272.98 111.01L272.98 112Z" fill="#182858"></path><path d="M293.67 112.24L293.67 112.24Q292.39 112.24 291.39 111.79Q290.39 111.34 289.81 110.41Q289.23 109.48 289.23 108.06L289.23 108.06L289.23 107.73L290.32 107.73L290.32 108.06Q290.32 109.70 291.26 110.50Q292.21 111.29 293.67 111.29L293.67 111.29Q295.15 111.29 295.95 110.60Q296.75 109.91 296.75 108.84L296.75 108.84Q296.75 108.12 296.40 107.69Q296.05 107.26 295.43 106.99Q294.81 106.73 293.99 106.53L293.99 106.53L292.90 106.25Q291.94 106.00 291.17 105.62Q290.41 105.23 289.96 104.61Q289.52 103.99 289.52 103.02L289.52 103.02Q289.52 102.06 290.02 101.34Q290.52 100.63 291.41 100.24Q292.29 99.86 293.47 99.86L293.47 99.86Q294.64 99.86 295.58 100.27Q296.53 100.68 297.08 101.47Q297.63 102.26 297.63 103.45L297.63 103.45L297.63 104.25L296.54 104.25L296.54 103.45Q296.54 102.51 296.13 101.94Q295.73 101.36 295.03 101.09Q294.33 100.81 293.47 100.81L293.47 100.81Q292.22 100.81 291.42 101.38Q290.61 101.95 290.61 103.02L290.61 103.02Q290.61 103.74 290.94 104.16Q291.27 104.59 291.88 104.84Q292.48 105.10 293.30 105.30L293.30 105.30L294.38 105.57Q295.32 105.80 296.10 106.16Q296.88 106.53 297.36 107.16Q297.83 107.80 297.83 108.84L297.83 108.84Q297.83 109.88 297.32 110.64Q296.80 111.41 295.86 111.82Q294.93 112.24 293.67 112.24Z" fill="#182858"></path></svg>