<svg xmlns="http://www.w3.org/2000/svg" width="216" height="216" viewBox="0 0 216 216"><rect width="216" height="216" rx="52" fill="#0a1a48"></rect><path d="M130.12 73.05L76.80 145.19L100.21 145.19Q106.61 145.19 112.05 144.64Q117.49 144.09 121.54 143.38L121.54 143.38Q126.24 142.62 130.12 141.58L130.12 141.58L127.44 150.44Q126.79 150.38 125.47 150.33Q124.16 150.27 122.55 150.22Q120.93 150.16 119.16 150.14Q117.38 150.11 115.79 150.08Q114.21 150.05 112.98 150.03Q111.75 150 111.20 150L111.20 150L61.82 150L61.82 148.63L115.08 76.39L94.52 76.39Q88.07 76.39 82.63 76.96Q77.18 77.54 73.14 78.20L73.14 78.20Q68.43 79.02 64.61 80L64.61 80L68.38 71.14Q69.04 71.20 70.38 71.25Q71.71 71.30 73.33 71.36Q74.94 71.41 76.69 71.44Q78.44 71.47 80.03 71.50Q81.61 71.52 82.84 71.55Q84.07 71.58 84.62 71.58L84.62 71.58L130.12 71.58L130.12 73.05Z" fill="#f8f8f8"></path><path d="M138.05 145.19L138.05 145.19Q138.05 143.98 138.52 142.92Q138.98 141.85 139.77 141.06Q140.57 140.27 141.63 139.80Q142.70 139.34 143.90 139.34L143.90 139.34Q145.16 139.34 146.23 139.80Q147.29 140.27 148.09 141.06Q148.88 141.85 149.34 142.92Q149.81 143.98 149.81 145.19L149.81 145.19Q149.81 147.70 148.11 149.40Q146.42 151.09 143.90 151.09L143.90 151.09Q142.70 151.09 141.63 150.63Q140.57 150.16 139.77 149.37Q138.98 148.58 138.52 147.51Q138.05 146.45 138.05 145.19Z" fill="#f2b01e"></path></svg>