<svg xmlns="http://www.w3.org/2000/svg" width="1920" height="1080" viewBox="0 0 1920 1080"><defs><radialGradient id="g3" cx="1400" cy="260" r="1000" gradientUnits="userSpaceOnUse"><stop offset="0" stop-color="#173A5E" stop-opacity="0.5"/><stop offset="1" stop-color="#173A5E" stop-opacity="0"/></radialGradient></defs><rect width="1920" height="1080" fill="#102A43"/><rect width="1920" height="1080" fill="#102A43"/>
<rect width="1920" height="1080" fill="url(#g3)"/>
<g fill="#FFFFFF" opacity="0.05">
<circle cx="60" cy="60" r="2"/>
<circle cx="130" cy="60" r="2"/>
<circle cx="200" cy="60" r="2"/>
<circle cx="270" cy="60" r="2"/>
<circle cx="340" cy="60" r="2"/>
<circle cx="410" cy="60" r="2"/>
<circle cx="480" cy="60" r="2"/>
<circle cx="550" cy="60" r="2"/>
<circle cx="620" cy="60" r="2"/>
<circle cx="690" cy="60" r="2"/>
<circle cx="760" cy="60" r="2"/>
<circle cx="830" cy="60" r="2"/>
<circle cx="900" cy="60" r="2"/>
<circle cx="970" cy="60" r="2"/>
<circle cx="1040" cy="60" r="2"/>
<circle cx="1110" cy="60" r="2"/>
<circle cx="1180" cy="60" r="2"/>
<circle cx="1250" cy="60" r="2"/>
<circle cx="1320" cy="60" r="2"/>
<circle cx="1390" cy="60" r="2"/>
<circle cx="1460" cy="60" r="2"/>
<circle cx="1530" cy="60" r="2"/>
<circle cx="1600" cy="60" r="2"/>
<circle cx="1670" cy="60" r="2"/>
<circle cx="1740" cy="60" r="2"/>
<circle cx="1810" cy="60" r="2"/>
<circle cx="1880" cy="60" r="2"/>
<circle cx="60" cy="130" r="2"/>
<circle cx="130" cy="130" r="2"/>
<circle cx="200" cy="130" r="2"/>
<circle cx="270" cy="130" r="2"/>
<circle cx="340" cy="130" r="2"/>
<circle cx="410" cy="130" r="2"/>
<circle cx="480" cy="130" r="2"/>
<circle cx="550" cy="130" r="2"/>
<circle cx="620" cy="130" r="2"/>
<circle cx="690" cy="130" r="2"/>
<circle cx="760" cy="130" r="2"/>
<circle cx="830" cy="130" r="2"/>
<circle cx="900" cy="130" r="2"/>
<circle cx="970" cy="130" r="2"/>
<circle cx="1040" cy="130" r="2"/>
<circle cx="1110" cy="130" r="2"/>
<circle cx="1180" cy="130" r="2"/>
<circle cx="1250" cy="130" r="2"/>
<circle cx="1320" cy="130" r="2"/>
<circle cx="1390" cy="130" r="2"/>
<circle cx="1460" cy="130" r="2"/>
<circle cx="1530" cy="130" r="2"/>
<circle cx="1600" cy="130" r="2"/>
<circle cx="1670" cy="130" r="2"/>
<circle cx="1740" cy="130" r="2"/>
<circle cx="1810" cy="130" r="2"/>
<circle cx="1880" cy="130" r="2"/>
<circle cx="60" cy="200" r="2"/>
<circle cx="130" cy="200" r="2"/>
<circle cx="200" cy="200" r="2"/>
<circle cx="270" cy="200" r="2"/>
<circle cx="340" cy="200" r="2"/>
<circle cx="410" cy="200" r="2"/>
<circle cx="480" cy="200" r="2"/>
<circle cx="550" cy="200" r="2"/>
<circle cx="620" cy="200" r="2"/>
<circle cx="690" cy="200" r="2"/>
<circle cx="760" cy="200" r="2"/>
<circle cx="830" cy="200" r="2"/>
<circle cx="900" cy="200" r="2"/>
<circle cx="970" cy="200" r="2"/>
<circle cx="1040" cy="200" r="2"/>
<circle cx="1110" cy="200" r="2"/>
<circle cx="1180" cy="200" r="2"/>
<circle cx="1250" cy="200" r="2"/>
<circle cx="1320" cy="200" r="2"/>
<circle cx="1390" cy="200" r="2"/>
<circle cx="1460" cy="200" r="2"/>
<circle cx="1530" cy="200" r="2"/>
<circle cx="1600" cy="200" r="2"/>
<circle cx="1670" cy="200" r="2"/>
<circle cx="1740" cy="200" r="2"/>
<circle cx="1810" cy="200" r="2"/>
<circle cx="1880" cy="200" r="2"/>
<circle cx="60" cy="270" r="2"/>
<circle cx="130" cy="270" r="2"/>
<circle cx="200" cy="270" r="2"/>
<circle cx="270" cy="270" r="2"/>
<circle cx="340" cy="270" r="2"/>
<circle cx="410" cy="270" r="2"/>
<circle cx="480" cy="270" r="2"/>
<circle cx="550" cy="270" r="2"/>
<circle cx="620" cy="270" r="2"/>
<circle cx="690" cy="270" r="2"/>
<circle cx="760" cy="270" r="2"/>
<circle cx="830" cy="270" r="2"/>
<circle cx="900" cy="270" r="2"/>
<circle cx="970" cy="270" r="2"/>
<circle cx="1040" cy="270" r="2"/>
<circle cx="1110" cy="270" r="2"/>
<circle cx="1180" cy="270" r="2"/>
<circle cx="1250" cy="270" r="2"/>
<circle cx="1320" cy="270" r="2"/>
<circle cx="1390" cy="270" r="2"/>
<circle cx="1460" cy="270" r="2"/>
<circle cx="1530" cy="270" r="2"/>
<circle cx="1600" cy="270" r="2"/>
<circle cx="1670" cy="270" r="2"/>
<circle cx="1740" cy="270" r="2"/>
<circle cx="1810" cy="270" r="2"/>
<circle cx="1880" cy="270" r="2"/>
<circle cx="60" cy="340" r="2"/>
<circle cx="130" cy="340" r="2"/>
<circle cx="200" cy="340" r="2"/>
<circle cx="270" cy="340" r="2"/>
<circle cx="340" cy="340" r="2"/>
<circle cx="410" cy="340" r="2"/>
<circle cx="480" cy="340" r="2"/>
<circle cx="550" cy="340" r="2"/>
<circle cx="620" cy="340" r="2"/>
<circle cx="690" cy="340" r="2"/>
<circle cx="760" cy="340" r="2"/>
<circle cx="830" cy="340" r="2"/>
<circle cx="900" cy="340" r="2"/>
<circle cx="970" cy="340" r="2"/>
<circle cx="1040" cy="340" r="2"/>
<circle cx="1110" cy="340" r="2"/>
<circle cx="1180" cy="340" r="2"/>
<circle cx="1250" cy="340" r="2"/>
<circle cx="1320" cy="340" r="2"/>
<circle cx="1390" cy="340" r="2"/>
<circle cx="1460" cy="340" r="2"/>
<circle cx="1530" cy="340" r="2"/>
<circle cx="1600" cy="340" r="2"/>
<circle cx="1670" cy="340" r="2"/>
<circle cx="1740" cy="340" r="2"/>
<circle cx="1810" cy="340" r="2"/>
<circle cx="1880" cy="340" r="2"/>
<circle cx="60" cy="410" r="2"/>
<circle cx="130" cy="410" r="2"/>
<circle cx="200" cy="410" r="2"/>
<circle cx="270" cy="410" r="2"/>
<circle cx="340" cy="410" r="2"/>
<circle cx="410" cy="410" r="2"/>
<circle cx="480" cy="410" r="2"/>
<circle cx="550" cy="410" r="2"/>
<circle cx="620" cy="410" r="2"/>
<circle cx="690" cy="410" r="2"/>
<circle cx="760" cy="410" r="2"/>
<circle cx="830" cy="410" r="2"/>
<circle cx="900" cy="410" r="2"/>
<circle cx="970" cy="410" r="2"/>
<circle cx="1040" cy="410" r="2"/>
<circle cx="1110" cy="410" r="2"/>
<circle cx="1180" cy="410" r="2"/>
<circle cx="1250" cy="410" r="2"/>
<circle cx="1320" cy="410" r="2"/>
<circle cx="1390" cy="410" r="2"/>
<circle cx="1460" cy="410" r="2"/>
<circle cx="1530" cy="410" r="2"/>
<circle cx="1600" cy="410" r="2"/>
<circle cx="1670" cy="410" r="2"/>
<circle cx="1740" cy="410" r="2"/>
<circle cx="1810" cy="410" r="2"/>
<circle cx="1880" cy="410" r="2"/>
<circle cx="60" cy="480" r="2"/>
<circle cx="130" cy="480" r="2"/>
<circle cx="200" cy="480" r="2"/>
<circle cx="270" cy="480" r="2"/>
<circle cx="340" cy="480" r="2"/>
<circle cx="410" cy="480" r="2"/>
<circle cx="480" cy="480" r="2"/>
<circle cx="550" cy="480" r="2"/>
<circle cx="620" cy="480" r="2"/>
<circle cx="690" cy="480" r="2"/>
<circle cx="760" cy="480" r="2"/>
<circle cx="830" cy="480" r="2"/>
<circle cx="900" cy="480" r="2"/>
<circle cx="970" cy="480" r="2"/>
<circle cx="1040" cy="480" r="2"/>
<circle cx="1110" cy="480" r="2"/>
<circle cx="1180" cy="480" r="2"/>
<circle cx="1250" cy="480" r="2"/>
<circle cx="1320" cy="480" r="2"/>
<circle cx="1390" cy="480" r="2"/>
<circle cx="1460" cy="480" r="2"/>
<circle cx="1530" cy="480" r="2"/>
<circle cx="1600" cy="480" r="2"/>
<circle cx="1670" cy="480" r="2"/>
<circle cx="1740" cy="480" r="2"/>
<circle cx="1810" cy="480" r="2"/>
<circle cx="1880" cy="480" r="2"/>
<circle cx="60" cy="550" r="2"/>
<circle cx="130" cy="550" r="2"/>
<circle cx="200" cy="550" r="2"/>
<circle cx="270" cy="550" r="2"/>
<circle cx="340" cy="550" r="2"/>
<circle cx="410" cy="550" r="2"/>
<circle cx="480" cy="550" r="2"/>
<circle cx="550" cy="550" r="2"/>
<circle cx="620" cy="550" r="2"/>
<circle cx="690" cy="550" r="2"/>
<circle cx="760" cy="550" r="2"/>
<circle cx="830" cy="550" r="2"/>
<circle cx="900" cy="550" r="2"/>
<circle cx="970" cy="550" r="2"/>
<circle cx="1040" cy="550" r="2"/>
<circle cx="1110" cy="550" r="2"/>
<circle cx="1180" cy="550" r="2"/>
<circle cx="1250" cy="550" r="2"/>
<circle cx="1320" cy="550" r="2"/>
<circle cx="1390" cy="550" r="2"/>
<circle cx="1460" cy="550" r="2"/>
<circle cx="1530" cy="550" r="2"/>
<circle cx="1600" cy="550" r="2"/>
<circle cx="1670" cy="550" r="2"/>
<circle cx="1740" cy="550" r="2"/>
<circle cx="1810" cy="550" r="2"/>
<circle cx="1880" cy="550" r="2"/>
<circle cx="60" cy="620" r="2"/>
<circle cx="130" cy="620" r="2"/>
<circle cx="200" cy="620" r="2"/>
<circle cx="270" cy="620" r="2"/>
<circle cx="340" cy="620" r="2"/>
<circle cx="410" cy="620" r="2"/>
<circle cx="480" cy="620" r="2"/>
<circle cx="550" cy="620" r="2"/>
<circle cx="620" cy="620" r="2"/>
<circle cx="690" cy="620" r="2"/>
<circle cx="760" cy="620" r="2"/>
<circle cx="830" cy="620" r="2"/>
<circle cx="900" cy="620" r="2"/>
<circle cx="970" cy="620" r="2"/>
<circle cx="1040" cy="620" r="2"/>
<circle cx="1110" cy="620" r="2"/>
<circle cx="1180" cy="620" r="2"/>
<circle cx="1250" cy="620" r="2"/>
<circle cx="1320" cy="620" r="2"/>
<circle cx="1390" cy="620" r="2"/>
<circle cx="1460" cy="620" r="2"/>
<circle cx="1530" cy="620" r="2"/>
<circle cx="1600" cy="620" r="2"/>
<circle cx="1670" cy="620" r="2"/>
<circle cx="1740" cy="620" r="2"/>
<circle cx="1810" cy="620" r="2"/>
<circle cx="1880" cy="620" r="2"/>
<circle cx="60" cy="690" r="2"/>
<circle cx="130" cy="690" r="2"/>
<circle cx="200" cy="690" r="2"/>
<circle cx="270" cy="690" r="2"/>
<circle cx="340" cy="690" r="2"/>
<circle cx="410" cy="690" r="2"/>
<circle cx="480" cy="690" r="2"/>
<circle cx="550" cy="690" r="2"/>
<circle cx="620" cy="690" r="2"/>
<circle cx="690" cy="690" r="2"/>
<circle cx="760" cy="690" r="2"/>
<circle cx="830" cy="690" r="2"/>
<circle cx="900" cy="690" r="2"/>
<circle cx="970" cy="690" r="2"/>
<circle cx="1040" cy="690" r="2"/>
<circle cx="1110" cy="690" r="2"/>
<circle cx="1180" cy="690" r="2"/>
<circle cx="1250" cy="690" r="2"/>
<circle cx="1320" cy="690" r="2"/>
<circle cx="1390" cy="690" r="2"/>
<circle cx="1460" cy="690" r="2"/>
<circle cx="1530" cy="690" r="2"/>
<circle cx="1600" cy="690" r="2"/>
<circle cx="1670" cy="690" r="2"/>
<circle cx="1740" cy="690" r="2"/>
<circle cx="1810" cy="690" r="2"/>
<circle cx="1880" cy="690" r="2"/>
<circle cx="60" cy="760" r="2"/>
<circle cx="130" cy="760" r="2"/>
<circle cx="200" cy="760" r="2"/>
<circle cx="270" cy="760" r="2"/>
<circle cx="340" cy="760" r="2"/>
<circle cx="410" cy="760" r="2"/>
<circle cx="480" cy="760" r="2"/>
<circle cx="550" cy="760" r="2"/>
<circle cx="620" cy="760" r="2"/>
<circle cx="690" cy="760" r="2"/>
<circle cx="760" cy="760" r="2"/>
<circle cx="830" cy="760" r="2"/>
<circle cx="900" cy="760" r="2"/>
<circle cx="970" cy="760" r="2"/>
<circle cx="1040" cy="760" r="2"/>
<circle cx="1110" cy="760" r="2"/>
<circle cx="1180" cy="760" r="2"/>
<circle cx="1250" cy="760" r="2"/>
<circle cx="1320" cy="760" r="2"/>
<circle cx="1390" cy="760" r="2"/>
<circle cx="1460" cy="760" r="2"/>
<circle cx="1530" cy="760" r="2"/>
<circle cx="1600" cy="760" r="2"/>
<circle cx="1670" cy="760" r="2"/>
<circle cx="1740" cy="760" r="2"/>
<circle cx="1810" cy="760" r="2"/>
<circle cx="1880" cy="760" r="2"/>
<circle cx="60" cy="830" r="2"/>
<circle cx="130" cy="830" r="2"/>
<circle cx="200" cy="830" r="2"/>
<circle cx="270" cy="830" r="2"/>
<circle cx="340" cy="830" r="2"/>
<circle cx="410" cy="830" r="2"/>
<circle cx="480" cy="830" r="2"/>
<circle cx="550" cy="830" r="2"/>
<circle cx="620" cy="830" r="2"/>
<circle cx="690" cy="830" r="2"/>
<circle cx="760" cy="830" r="2"/>
<circle cx="830" cy="830" r="2"/>
<circle cx="900" cy="830" r="2"/>
<circle cx="970" cy="830" r="2"/>
<circle cx="1040" cy="830" r="2"/>
<circle cx="1110" cy="830" r="2"/>
<circle cx="1180" cy="830" r="2"/>
<circle cx="1250" cy="830" r="2"/>
<circle cx="1320" cy="830" r="2"/>
<circle cx="1390" cy="830" r="2"/>
<circle cx="1460" cy="830" r="2"/>
<circle cx="1530" cy="830" r="2"/>
<circle cx="1600" cy="830" r="2"/>
<circle cx="1670" cy="830" r="2"/>
<circle cx="1740" cy="830" r="2"/>
<circle cx="1810" cy="830" r="2"/>
<circle cx="1880" cy="830" r="2"/>
<circle cx="60" cy="900" r="2"/>
<circle cx="130" cy="900" r="2"/>
<circle cx="200" cy="900" r="2"/>
<circle cx="270" cy="900" r="2"/>
<circle cx="340" cy="900" r="2"/>
<circle cx="410" cy="900" r="2"/>
<circle cx="480" cy="900" r="2"/>
<circle cx="550" cy="900" r="2"/>
<circle cx="620" cy="900" r="2"/>
<circle cx="690" cy="900" r="2"/>
<circle cx="760" cy="900" r="2"/>
<circle cx="830" cy="900" r="2"/>
<circle cx="900" cy="900" r="2"/>
<circle cx="970" cy="900" r="2"/>
<circle cx="1040" cy="900" r="2"/>
<circle cx="1110" cy="900" r="2"/>
<circle cx="1180" cy="900" r="2"/>
<circle cx="1250" cy="900" r="2"/>
<circle cx="1320" cy="900" r="2"/>
<circle cx="1390" cy="900" r="2"/>
<circle cx="1460" cy="900" r="2"/>
<circle cx="1530" cy="900" r="2"/>
<circle cx="1600" cy="900" r="2"/>
<circle cx="1670" cy="900" r="2"/>
<circle cx="1740" cy="900" r="2"/>
<circle cx="1810" cy="900" r="2"/>
<circle cx="1880" cy="900" r="2"/>
<circle cx="60" cy="970" r="2"/>
<circle cx="130" cy="970" r="2"/>
<circle cx="200" cy="970" r="2"/>
<circle cx="270" cy="970" r="2"/>
<circle cx="340" cy="970" r="2"/>
<circle cx="410" cy="970" r="2"/>
<circle cx="480" cy="970" r="2"/>
<circle cx="550" cy="970" r="2"/>
<circle cx="620" cy="970" r="2"/>
<circle cx="690" cy="970" r="2"/>
<circle cx="760" cy="970" r="2"/>
<circle cx="830" cy="970" r="2"/>
<circle cx="900" cy="970" r="2"/>
<circle cx="970" cy="970" r="2"/>
<circle cx="1040" cy="970" r="2"/>
<circle cx="1110" cy="970" r="2"/>
<circle cx="1180" cy="970" r="2"/>
<circle cx="1250" cy="970" r="2"/>
<circle cx="1320" cy="970" r="2"/>
<circle cx="1390" cy="970" r="2"/>
<circle cx="1460" cy="970" r="2"/>
<circle cx="1530" cy="970" r="2"/>
<circle cx="1600" cy="970" r="2"/>
<circle cx="1670" cy="970" r="2"/>
<circle cx="1740" cy="970" r="2"/>
<circle cx="1810" cy="970" r="2"/>
<circle cx="1880" cy="970" r="2"/>
<circle cx="60" cy="1040" r="2"/>
<circle cx="130" cy="1040" r="2"/>
<circle cx="200" cy="1040" r="2"/>
<circle cx="270" cy="1040" r="2"/>
<circle cx="340" cy="1040" r="2"/>
<circle cx="410" cy="1040" r="2"/>
<circle cx="480" cy="1040" r="2"/>
<circle cx="550" cy="1040" r="2"/>
<circle cx="620" cy="1040" r="2"/>
<circle cx="690" cy="1040" r="2"/>
<circle cx="760" cy="1040" r="2"/>
<circle cx="830" cy="1040" r="2"/>
<circle cx="900" cy="1040" r="2"/>
<circle cx="970" cy="1040" r="2"/>
<circle cx="1040" cy="1040" r="2"/>
<circle cx="1110" cy="1040" r="2"/>
<circle cx="1180" cy="1040" r="2"/>
<circle cx="1250" cy="1040" r="2"/>
<circle cx="1320" cy="1040" r="2"/>
<circle cx="1390" cy="1040" r="2"/>
<circle cx="1460" cy="1040" r="2"/>
<circle cx="1530" cy="1040" r="2"/>
<circle cx="1600" cy="1040" r="2"/>
<circle cx="1670" cy="1040" r="2"/>
<circle cx="1740" cy="1040" r="2"/>
<circle cx="1810" cy="1040" r="2"/>
<circle cx="1880" cy="1040" r="2"/>
</g>
<g stroke="#14B8A6" stroke-width="1.6" opacity="0.45">
<line x1="300" y1="820" x2="520" y2="640"/>
<line x1="520" y1="640" x2="760" y2="760"/>
<line x1="760" y1="760" x2="980" y2="560"/>
<line x1="980" y1="560" x2="1240" y2="700"/>
<line x1="1240" y1="700" x2="1480" y2="520"/>
<line x1="1480" y1="520" x2="1700" y2="680"/>
<line x1="180" y1="500" x2="520" y2="640"/>
<line x1="520" y1="640" x2="640" y2="360"/>
<line x1="640" y1="360" x2="1080" y2="300"/>
<line x1="1240" y1="700" x2="1560" y2="300"/>
<line x1="1480" y1="520" x2="1560" y2="300"/>
<line x1="1700" y1="680" x2="1820" y2="460"/>
<line x1="1080" y1="300" x2="1240" y2="700"/>
</g>
<circle cx="300" cy="820" r="6" fill="#F4A93C"/><circle cx="300" cy="820" r="13" fill="none" stroke="#F4A93C" stroke-width="1.4" opacity="0.5"/>
<circle cx="520" cy="640" r="6" fill="#14B8A6"/><circle cx="520" cy="640" r="13" fill="none" stroke="#14B8A6" stroke-width="1.4" opacity="0.5"/>
<circle cx="760" cy="760" r="6" fill="#14B8A6"/><circle cx="760" cy="760" r="13" fill="none" stroke="#14B8A6" stroke-width="1.4" opacity="0.5"/>
<circle cx="980" cy="560" r="6" fill="#F4A93C"/><circle cx="980" cy="560" r="13" fill="none" stroke="#F4A93C" stroke-width="1.4" opacity="0.5"/>
<circle cx="1240" cy="700" r="6" fill="#14B8A6"/><circle cx="1240" cy="700" r="13" fill="none" stroke="#14B8A6" stroke-width="1.4" opacity="0.5"/>
<circle cx="1480" cy="520" r="6" fill="#14B8A6"/><circle cx="1480" cy="520" r="13" fill="none" stroke="#14B8A6" stroke-width="1.4" opacity="0.5"/>
<circle cx="1700" cy="680" r="6" fill="#F4A93C"/><circle cx="1700" cy="680" r="13" fill="none" stroke="#F4A93C" stroke-width="1.4" opacity="0.5"/>
<circle cx="180" cy="500" r="6" fill="#14B8A6"/><circle cx="180" cy="500" r="13" fill="none" stroke="#14B8A6" stroke-width="1.4" opacity="0.5"/>
<circle cx="640" cy="360" r="6" fill="#14B8A6"/><circle cx="640" cy="360" r="13" fill="none" stroke="#14B8A6" stroke-width="1.4" opacity="0.5"/>
<circle cx="1080" cy="300" r="6" fill="#F4A93C"/><circle cx="1080" cy="300" r="13" fill="none" stroke="#F4A93C" stroke-width="1.4" opacity="0.5"/>
<circle cx="1560" cy="300" r="6" fill="#14B8A6"/><circle cx="1560" cy="300" r="13" fill="none" stroke="#14B8A6" stroke-width="1.4" opacity="0.5"/>
<circle cx="1820" cy="460" r="6" fill="#14B8A6"/><circle cx="1820" cy="460" r="13" fill="none" stroke="#14B8A6" stroke-width="1.4" opacity="0.5"/></svg>